<svg width="121" height="26" viewBox="0 0 121 26" fill="none" xmlns="http://www.w3.org/2000/svg">
<path d="M12.04 20H9.94V17.34H8.54C2.66 17.34 0.98 13.056 0.98 10.116C0.98 7.148 2.94 2.92 8.54 2.92H9.94V0.399999H12.04V2.92H13.44C19.32 2.92 21 7.148 21 10.116C21 13.056 19.32 17.34 13.44 17.34H12.04V20ZM9.94 15.66V4.6H8.456C4.312 4.6 2.94 7.652 2.94 10.116C2.94 12.58 4.312 15.66 8.456 15.66H9.94ZM12.04 4.6V15.66H13.524C17.668 15.66 19.04 12.58 19.04 10.116C19.04 7.652 17.668 4.6 13.524 4.6H12.04ZM35.9844 6.28V20H34.0244V8.464L26.1844 20H23.9444V6.28H25.9044V17.816L33.7444 6.28H35.9844ZM49.1531 7.82H44.8131V9.64C44.8131 19.16 41.4531 20.14 39.2411 20.14C38.6531 20.14 38.3731 20 38.3731 20V18.516C38.3731 18.516 38.6531 18.6 38.9331 18.6C40.8931 18.6 43.1331 17.2 43.1331 9.08V6.28H51.1131V20H49.1531V7.82ZM55.0342 20V6.28H56.9942V12.58H60.4942C65.2542 12.608 66.0942 14.316 66.0942 16.276C66.0942 18.208 65.2542 19.972 60.4942 20H55.0342ZM56.9942 14.12V18.46H60.4382C63.1822 18.46 64.2742 17.816 64.2742 16.276C64.2742 14.736 63.1822 14.12 60.4382 14.12H56.9942ZM66.3764 7.82V6.28H78.6964V7.82H73.5164V20H71.5564V7.82H66.3764ZM83.1895 13.14C83.1895 15.856 84.9535 18.88 88.2295 18.88C91.5055 18.88 92.9895 15.856 92.9895 13.14C92.9895 10.424 91.5055 7.4 88.2295 7.4C84.9535 7.4 83.1895 10.424 83.1895 13.14ZM83.1895 18.88V25.04H81.2295V6.28H82.9095V9.22H83.1895C83.1895 9.22 84.4495 5.72 88.3695 5.72C92.4575 5.72 94.9495 9.052 94.9495 13.14C94.9495 17.228 92.3175 20.56 88.5095 20.56C84.4495 20.56 83.1895 17.06 83.1895 17.06H82.9095L83.1895 18.88ZM114.453 9.136H120.025V11.124H114.453V16.892H112.437V11.124H106.865V9.136H112.437V3.34H114.453V9.136Z" fill="#2A2835"/>
</svg>
