<svg width="64" height="24" viewBox="0 0 64 24" fill="none" xmlns="http://www.w3.org/2000/svg">
<g id="Logo" clip-path="url(#clip0_903_1593)">
<path id="Vector" d="M2.11438 4.2149L2.21837 4.10399L5.51127 0.582322L6.05893 0H5.25477H3.31369H3.13345L3.02946 0.138648L0.409012 3.66031L0.693241 3.86828L0.409012 3.66031L0 4.2149H0.693241H1.96187H2.11438Z" fill="#2A2835"/>
<path id="Vector_2" d="M1.38666 5.31715H1.04004V5.66377V18.5373V18.8839H1.38666H2.96032H3.30694V18.5373V5.66377V5.31715H2.96032H1.38666Z" fill="#2A2835"/>
<path id="Vector_3" d="M32.915 0.374344H32.5684V0.720964V18.5373V18.8839H32.915H34.4817H34.8283V18.5373V0.720964V0.374344H34.4817H32.915Z" fill="#2A2835"/>
<path id="Vector_4" d="M63.4523 16.8042C63.3483 16.8458 63.2374 16.8735 63.0918 16.8735C62.8423 16.8735 62.7106 16.8111 62.6482 16.7418C62.5788 16.6724 62.5164 16.5407 62.5164 16.2704V9.43501C62.5164 8.54073 62.3709 7.77816 62.052 7.18197C61.747 6.59272 61.3449 6.12132 60.8388 5.78163C60.3466 5.4558 59.7989 5.2409 59.1958 5.12998C58.6135 5.01213 58.0242 4.94974 57.4419 4.94974C56.6655 4.94974 55.9515 5.03293 55.3067 5.21317C54.6551 5.39341 54.0728 5.66378 53.5667 6.04506C53.0745 6.42634 52.6794 6.91854 52.3951 7.51473C52.104 8.11092 51.9376 8.80416 51.8891 9.58752L51.8613 9.95494H54.1421L54.156 9.62218C54.1837 8.64471 54.4956 8 55.0156 7.61872C55.5702 7.19584 56.3119 6.96707 57.2478 6.96707C57.6915 6.96707 58.1005 7.00866 58.4749 7.08492H58.4818H58.4887C58.8631 7.14731 59.175 7.26516 59.4246 7.43154H59.4315C59.688 7.59792 59.8891 7.81976 60.0277 8.11092V8.13171C60.1733 8.39514 60.2565 8.7695 60.2565 9.2617C60.2565 9.58059 60.208 9.80936 60.1386 9.96187V9.98267C60.0762 10.1421 59.9861 10.26 59.8752 10.3501C59.7573 10.4333 59.5979 10.4957 59.3899 10.5373C59.1542 10.5858 58.8769 10.6274 58.5511 10.6551C57.6984 10.7522 56.8596 10.8631 56.0208 10.9809C55.182 11.0849 54.4125 11.2721 53.7192 11.5494C53.019 11.8406 52.4437 12.2634 52.0069 12.825C51.5424 13.4073 51.3345 14.1906 51.3345 15.1334C51.3345 15.8198 51.4523 16.4367 51.688 16.9705V16.9844C51.9445 17.4905 52.2773 17.9203 52.7002 18.2669V18.2738C53.1369 18.5997 53.636 18.8354 54.1837 18.9809C54.7452 19.1404 55.3414 19.2166 55.9653 19.2166C56.5892 19.2166 57.1854 19.1542 57.6707 19.0295C58.1629 18.9047 58.5996 18.7314 58.9809 18.4957C59.3761 18.26 59.7227 17.9757 60.0277 17.636C60.1525 17.4974 60.2773 17.3449 60.3951 17.1924C60.3951 17.2062 60.3951 17.227 60.3951 17.2409V17.2548V17.2686C60.4506 17.5737 60.5615 17.851 60.721 18.0936C60.8873 18.3501 61.123 18.5442 61.4003 18.6828H61.4142L61.4281 18.6967C61.7331 18.8215 62.1074 18.87 62.5303 18.87C62.7521 18.87 62.9393 18.8631 63.0918 18.8423C63.2513 18.8215 63.4246 18.8007 63.6118 18.766L63.896 18.7175V16.5754L63.4107 16.7903L63.4523 16.8042ZM60.2426 13.5529C60.2426 14.1352 60.1248 14.6482 59.9029 15.0919C59.688 15.5563 59.3969 15.9376 59.0225 16.2565C58.662 16.5754 58.2253 16.818 57.7192 16.9844C57.2062 17.1577 56.6724 17.2409 56.104 17.2409C55.7781 17.2409 55.4523 17.1854 55.1404 17.0815C54.8284 16.9775 54.558 16.8319 54.3293 16.6447C54.1005 16.4437 53.9133 16.208 53.7677 15.9515C53.643 15.688 53.5806 15.3899 53.5806 15.0364C53.5806 14.4749 53.74 14.0936 54.0173 13.844L53.7885 13.5945L54.0242 13.851C54.3639 13.539 54.8007 13.2964 55.3414 13.13C55.9029 12.9567 56.5199 12.825 57.1993 12.7418L57.1508 12.3951L57.1993 12.7348C57.9133 12.6378 58.6066 12.5269 59.2721 12.409C59.5078 12.3743 59.7712 12.312 60.0554 12.2288C60.1178 12.208 60.1733 12.1872 60.2357 12.1594V13.539L60.2426 13.5529Z" fill="#2A2835"/>
<path id="Vector_5" d="M14.8562 5.31715H14.6067L14.5304 5.54592L10.8354 16L7.09888 5.54592L7.01569 5.31715H6.76612H5.01915H4.52002L4.70026 5.78856L9.66387 18.662L9.98969 18.5373L9.66387 18.662L9.75399 18.8839H9.98969H11.6604H11.903L11.9862 18.662L16.8042 5.78163L16.9776 5.31715H16.4784H14.8562Z" fill="#2A2835"/>
<path id="Vector_6" d="M29.9828 9.37262C29.7055 8.49914 29.2896 7.73657 28.7489 7.08492C28.2012 6.43328 27.5218 5.91335 26.7107 5.52513C25.9066 5.12998 24.9915 4.94281 23.9655 4.94281C22.9395 4.94281 22.0175 5.13692 21.1925 5.52513C20.4022 5.91335 19.7298 6.43328 19.1821 7.08492C18.6345 7.73657 18.2255 8.49914 17.9482 9.37262C17.6709 10.2253 17.5322 11.1335 17.5322 12.0971C17.5322 13.0607 17.6709 13.9827 17.9482 14.8492L18.274 14.7452L17.9412 14.8562C18.2185 15.7088 18.6345 16.4645 19.1752 17.1161C19.7229 17.7678 20.3953 18.2877 21.1856 18.6759H21.1925C22.0106 19.0503 22.9326 19.2305 23.9586 19.2305C24.9846 19.2305 25.8996 19.0503 26.7038 18.6759C27.508 18.2877 28.1943 17.7678 28.7419 17.1161C29.2896 16.4645 29.6986 15.7088 29.9759 14.8562C30.2532 13.9827 30.3918 13.0676 30.3918 12.104C30.3918 11.1404 30.2532 10.2322 29.9759 9.37955L29.9828 9.37262ZM27.8476 14.0173C27.6743 14.6343 27.4109 15.175 27.0574 15.6603L27.3416 15.8683L27.0574 15.6672C26.7246 16.1387 26.2948 16.5199 25.7749 16.8111C25.2688 17.0953 24.6726 17.2409 23.9724 17.2409C23.2723 17.2409 22.6761 17.0953 22.17 16.8111C21.6501 16.5199 21.2133 16.1387 20.8598 15.6603C20.5201 15.182 20.2497 14.6343 20.0626 14.0173C19.8892 13.3865 19.7991 12.7418 19.7991 12.0901C19.7991 11.4385 19.8892 10.8076 20.0626 10.1906C20.2497 9.55979 20.5201 9.0052 20.8598 8.52687C21.2133 8.05546 21.6501 7.66725 22.17 7.37609C22.6761 7.09186 23.2723 6.94628 23.9724 6.94628C24.6726 6.94628 25.2688 7.09186 25.7749 7.37609C26.2948 7.66725 26.7246 8.04853 27.0574 8.51993C27.4109 9.0052 27.6743 9.55286 27.8476 10.1837V10.1906C28.0348 10.8076 28.1319 11.4385 28.1319 12.0832C28.1319 12.7279 28.0348 13.3726 27.8476 14.0035V14.0173Z" fill="#2A2835"/>
<path id="Vector_7" d="M47.2998 5.31716H46.9532V6.7799C46.9255 6.74524 46.8977 6.70364 46.8631 6.66898C46.5788 6.33622 46.253 6.04506 45.8856 5.7955C45.5043 5.52513 45.0884 5.32409 44.6239 5.17851C44.1733 5.03293 43.688 4.96361 43.175 4.96361C42.1976 4.96361 41.3171 5.14385 40.5338 5.5182C39.7712 5.87175 39.1265 6.37089 38.5927 7.00867C38.0797 7.62565 37.6846 8.36049 37.4073 9.19238C37.1438 10.0173 37.019 10.8839 37.019 11.799C37.019 12.714 37.13 13.6361 37.3518 14.4818C37.5806 15.3206 37.9411 16.0624 38.4333 16.7002C38.9532 17.3449 39.5979 17.851 40.3743 18.2184C41.1646 18.5789 42.0936 18.7452 43.1612 18.7452C44.1733 18.7452 45.0606 18.4887 45.8232 17.9619C46.2599 17.6638 46.6343 17.3033 46.9532 16.8943V17.4974C46.9532 19.0225 46.6343 20.1317 46.052 20.8804C45.4904 21.6014 44.5546 21.9965 43.1542 21.9965C42.7452 21.9965 42.3501 21.948 41.9618 21.8579C41.5806 21.7816 41.2339 21.6568 40.922 21.4766C40.6308 21.3033 40.3743 21.0676 40.1525 20.7695C39.9584 20.5061 39.8197 20.1594 39.7435 19.7158L39.695 19.4246H37.4558L37.4835 19.799C37.539 20.5269 37.7331 21.1716 38.0866 21.7123C38.4471 22.253 38.8839 22.6898 39.4107 23.0364C39.9445 23.3761 40.5338 23.6257 41.1854 23.7851C41.8301 23.9445 42.4887 24.0208 43.1612 24.0208C44.2357 24.0208 45.1646 23.8752 45.9341 23.5702C46.7106 23.2721 47.3553 22.8284 47.8405 22.2461C48.3258 21.6707 48.6724 20.9775 48.8804 20.1733C49.1022 19.3761 49.2131 18.4887 49.2131 17.5182V5.31716H47.2929H47.2998ZM46.6898 13.747C46.5372 14.3293 46.2946 14.8423 45.9688 15.286C45.6499 15.7088 45.2547 16.0624 44.7764 16.3397C44.3189 16.5893 43.7851 16.721 43.1473 16.721C42.461 16.721 41.8925 16.5893 41.4142 16.3397C40.922 16.0624 40.5199 15.7158 40.201 15.2929C39.8821 14.8492 39.6395 14.3362 39.48 13.7608C39.3206 13.1785 39.2443 12.5754 39.2443 11.9515C39.2443 11.3276 39.3137 10.6898 39.4592 10.0867C39.6187 9.47661 39.8544 8.94281 40.1802 8.47834C40.4991 8.0208 40.9012 7.66031 41.3865 7.38302H41.3934L41.2201 7.08493L41.4003 7.38302C41.8717 7.10572 42.4471 6.96014 43.1473 6.96014C43.8475 6.96014 44.4159 7.10572 44.8596 7.38302C45.3449 7.67418 45.74 8.04853 46.045 8.51993C46.357 8.99827 46.5788 9.539 46.7244 10.1352C46.87 10.7452 46.9393 11.3484 46.9393 11.9515C46.9393 12.5546 46.8492 13.1646 46.6759 13.747H46.6898Z" fill="#2A2835"/>
</g>
<defs>
<clipPath id="clip0_903_1593">
<rect width="63.9376" height="24" fill="white"/>
</clipPath>
</defs>
</svg>
